HIERARCHY
ROOT Hips
{
	OFFSET 0.000000 0.000000 0.000000 
	CHANNELS 6 Xposition Yposition Zposition Zrotation Yrotation Xrotation
	JOINT LeftUpLeg
	{
		OFFSET 1.363060 -1.794630 0.839290 
		CHANNELS 3 Zrotation Yrotation Xrotation
		JOINT LeftLeg
		{
			OFFSET 2.448110 -6.726130 0.000000 
			CHANNELS 3 Zrotation Yrotation Xrotation
			JOINT LeftFoot
			{
				OFFSET 2.562200 -7.039590 0.000000 
				CHANNELS 3 Zrotation Yrotation Xrotation
				JOINT LeftToeBase
				{
					OFFSET 0.157640 -0.433110 2.322550 
					CHANNELS 3 Zrotation Yrotation Xrotation
					End Site
					{
						OFFSET 0.000000 0.000000 0.000000 
					}
				}
			}
		}
	}
	JOINT RightUpLeg
	{
		OFFSET -1.305520 -1.794630 0.839290 
		CHANNELS 3 Zrotation Yrotation Xrotation
		JOINT RightLeg
		{
			OFFSET -2.542530 -6.985550 0.000000 
			CHANNELS 3 Zrotation Yrotation Xrotation
			JOINT RightFoot
			{
				OFFSET -2.568260 -7.056230 0.000000 
				CHANNELS 3 Zrotation Yrotation Xrotation
				JOINT RightToeBase
				{
					OFFSET -0.164730 -0.452590 2.363150 
					CHANNELS 3 Zrotation Yrotation Xrotation
					End Site
					{
						OFFSET 0.000000 0.000000 0.000000 
					}
				}
			}
		}
	}
	JOINT Spine
	{
		OFFSET 0.028270 2.035590 -0.193380 
		CHANNELS 3 Zrotation Yrotation Xrotation
		JOINT Spine1
		{
			OFFSET 0.056720 2.048850 -0.042750 
			CHANNELS 3 Zrotation Yrotation Xrotation
			JOINT Neck1
			{
				OFFSET -0.054170 1.746240 0.172020 
				CHANNELS 3 Zrotation Yrotation Xrotation
				JOINT Head
				{
					OFFSET 0.104070 1.761360 -0.123970 
					CHANNELS 3 Zrotation Yrotation Xrotation
					End Site
					{
						OFFSET 0.000000 0.000000 0.000000 
					}
				}
			}
			JOINT LeftArm
			{
				OFFSET 3.362410 1.200890 -0.311210 
				CHANNELS 3 Zrotation Yrotation Xrotation
				JOINT LeftForeArm
				{
					OFFSET 4.983000 -0.000000 -0.000000 
					CHANNELS 3 Zrotation Yrotation Xrotation
					JOINT LeftHand
					{
						OFFSET 3.483560 -0.000000 -0.000000 
						CHANNELS 3 Zrotation Yrotation Xrotation
						JOINT LeftHandIndex1
						{
							OFFSET 0.715260 -0.000000 -0.000000 
							CHANNELS 3 Zrotation Yrotation Xrotation
							End Site
							{
								OFFSET 0.000000 0.000000 0.000000 
							}
						}
					}
				}
			}
			JOINT RightArm
			{
				OFFSET -3.136600 1.374050 -0.404650 
				CHANNELS 3 Zrotation Yrotation Xrotation
				JOINT RightForeArm
				{
					OFFSET -5.241900 -0.000000 -0.000000 
					CHANNELS 3 Zrotation Yrotation Xrotation
					JOINT RightHand
					{
						OFFSET -3.444170 -0.000000 -0.000000 
						CHANNELS 3 Zrotation Yrotation Xrotation
						JOINT RightHandIndex1
						{
							OFFSET -0.622530 -0.000000 -0.000000 
							CHANNELS 3 Zrotation Yrotation Xrotation
							End Site
							{
								OFFSET 0.000000 0.000000 0.000000 
							}
						}
					}
				}
			}
		}
	}
}
MOTION
Frames: 7
Frame Time: 0.041667
22.056081 5.952970 -14.776233 122.142098 31.331121 24.054582 15.409526 39.353971 35.029450 27.312470 24.122095 110.540338 2.115347 -8.928801 2.192837 4.265200 -12.505100 -37.543200 12.340105 20.952294 1.819024 -34.176514 -16.963644 129.862794 -0.203075 -0.979530 -2.521303 -3.268300 -11.117100 32.676000 25.996632 -9.860636 -3.835435 1.848229 -5.058869 0.656074 31.034130 -10.919077 6.968377 7.100300 -3.834300 5.815700 15.822498 -24.445847 -28.051657 127.779421 -53.553247 -92.570207 3.449320 -2.060181 -17.052173 -7.125000 0.000000 0.000000 57.305980 18.341744 -41.303363 -146.286151 38.999298 -108.415619 -0.211653 -0.729353 -13.322705 7.125000 0.000000 0.000000 
22.038863 5.975353 -14.764079 122.115868 31.197161 24.320044 14.230071 39.588915 34.274231 27.145870 24.156868 110.047829 2.015099 -8.540034 2.662433 4.234400 -12.466000 -37.401100 11.517355 20.864746 1.420466 -34.064637 -16.960073 129.638295 -0.231238 -0.740470 -2.379426 -3.480500 -11.435000 33.761500 26.136138 -9.755071 -4.197772 1.390856 -5.065981 0.849273 30.990382 -10.918629 7.385952 7.054600 -3.793600 5.881200 18.042638 -26.194764 -28.413621 122.135511 -55.567094 -87.557405 3.250716 -1.928686 -16.830526 -7.125000 0.000000 0.000000 57.450476 18.508823 -41.078396 -146.407803 38.885217 -108.473285 -0.207043 -0.732514 -13.146355 7.125000 0.000000 0.000000 
22.027114 5.995711 -14.752533 122.156598 31.087483 24.419893 13.089211 39.674094 33.641909 26.955990 24.178427 109.494901 1.908871 -8.119159 3.245446 4.196600 -12.417600 -37.225600 10.690712 20.618644 1.302375 -33.938132 -16.942935 129.381534 -0.260990 -0.482265 -2.260239 -3.662400 -11.697100 34.668600 26.247273 -9.628190 -4.530812 0.981102 -5.057307 0.964542 31.117822 -10.933443 7.757516 7.065300 -3.763600 5.946800 20.785087 -28.357304 -29.155179 114.593547 -57.678486 -80.696136 3.039857 -1.802312 -16.284338 -7.125000 0.000000 0.000000 57.569509 18.617823 -40.965500 -146.530863 38.780910 -108.525427 -0.200674 -0.736587 -13.003094 7.125000 0.000000 0.000000 
22.017898 6.013536 -14.742608 122.237002 30.969483 24.480350 11.890642 39.692659 32.979804 26.750138 24.189080 108.898427 1.795558 -7.653406 3.948052 4.121800 -12.320800 -36.876400 9.808472 20.338881 1.242635 -33.809679 -16.914775 129.134241 -0.292657 -0.199654 -2.124929 -3.813500 -11.908000 35.407400 26.321451 -9.478015 -4.878940 0.554108 -5.036302 1.043391 31.336796 -10.957467 8.088399 7.108600 -3.742000 6.009900 23.912773 -30.783276 -30.415245 105.137423 -59.769066 -71.954072 2.847425 -1.697800 -15.450462 -7.125000 0.000000 0.000000 57.643086 18.692949 -40.970954 -146.628828 38.707831 -108.555736 -0.192847 -0.740738 -12.912517 7.125000 0.000000 0.000000 
22.010200 6.029842 -14.733796 122.357219 30.836946 24.526990 10.620600 39.655761 32.273162 26.520456 24.192754 108.234476 1.676351 -7.137831 4.799123 3.997900 -12.157600 -36.291800 8.859120 20.044400 1.207860 -33.676323 -16.877816 128.888702 -0.325340 0.102425 -1.962381 -3.942600 -12.083600 36.028500 26.371995 -9.370252 -5.203169 0.148108 -5.026775 1.069760 31.530274 -10.958496 8.427664 7.154800 -3.709800 6.072000 27.099364 -33.194106 -32.220827 93.964808 -61.754728 -61.818410 2.658424 -1.635455 -14.260069 -7.125000 0.000000 0.000000 57.654771 18.802700 -41.020425 -146.674044 38.683424 -108.550250 -0.184881 -0.743203 -12.877164 7.125000 0.000000 0.000000 
22.008681 6.046351 -14.723162 122.505720 30.758413 24.323822 9.565648 39.430158 31.856879 26.244507 24.195893 107.449559 1.569431 -6.653908 5.901975 3.817900 -11.914100 -35.428800 8.014652 19.574737 1.553955 -33.523157 -16.839470 128.576687 -0.354411 0.382816 -1.823144 -4.057000 -12.235800 36.571500 26.448473 -9.374007 -5.300115 -0.084234 -5.040759 0.989167 31.611443 -10.955036 8.798643 7.190700 -3.674800 6.147900 30.117826 -35.340398 -34.165248 81.589889 -62.885045 -51.274260 2.403126 -1.607711 -12.568276 -7.125000 0.000000 0.000000 57.566750 19.032942 -41.117799 -146.653902 38.714230 -108.505723 -0.178559 -0.743219 -12.882780 7.125000 0.000000 0.000000 
22.007871 6.067417 -14.707767 122.617492 30.720858 23.994381 8.632648 39.089969 31.539891 25.908424 24.198406 106.505448 1.479369 -6.195458 7.392004 3.584100 -11.585400 -34.280700 7.279056 19.036874 2.072036 -33.353063 -16.816336 128.198156 -0.378516 0.632032 -1.653791 -4.164300 -12.375900 37.075000 26.588220 -9.463848 -5.249090 -0.225242 -5.082357 0.944543 31.521168 -10.933155 9.195688 7.193100 -3.632200 6.231700 32.940040 -37.032867 -35.548784 69.574727 -62.230303 -41.494120 2.111503 -1.590613 -10.517977 -7.125000 0.000000 0.000000 57.413807 19.433917 -41.212900 -146.572282 38.787396 -108.426606 -0.174556 -0.741030 -12.902713 7.125000 0.000000 0.000000 
